<?xml version="1.0" encoding="iso-8859-1"?>
<!-- Uploaded to: SVG Repo, www.svgrepo.com, Generator: SVG Repo Mixer Tools -->
<svg fill="#FFFFFF" height="800px" width="800px" version="1.1" id="Layer_1" xmlns="http://www.w3.org/2000/svg" xmlns:xlink="http://www.w3.org/1999/xlink" 
	 	viewBox="0 0 479.881 479.881" xml:space="preserve">
<g>
	<g>
		<path d="M468.365,325.854c-0.747-1.707-1.813-3.093-3.2-4.16c-32-26.347-55.467-61.44-67.52-101.12l-2.24-7.36
			c-3.52-11.627-8.533-22.613-14.72-32.96c9.173-0.853,20.48-4.373,32.64-14.187c21.227-17.067,33.92-46.827,33.92-79.467
			s-12.693-62.293-33.92-79.467c-27.413-22.08-96.533,13.12-116.8,24.32c-4.907-12.693-17.067-21.013-30.507-21.013h-72.32
			c-14.4,0-27.2,9.28-31.68,23.04c-33.28-17.707-97.92-47.573-120.64-25.813c-19.2,18.24-30.613,49.067-30.613,82.133
			s11.413,63.893,30.613,82.24c5.653,5.44,13.867,7.573,23.573,7.573c11.947,0,26.027-3.413,40.32-8.213
			c-19.093,24.107-30.507,56.213-30.507,92.693v8.96c0,50.133-13.12,95.36-39.147,134.4c-0.427,0.533-0.747,1.173-0.96,1.813
			l-0.96,2.453c-2.24,5.44,0.32,11.733,5.76,13.973c1.28,0.533,2.667,0.853,4.053,0.853h105.92v2.24
			c0,27.733,24.747,49.6,56.96,50.987c0.427,0,0.853,0.107,1.28,0.107h2.133c0.427,0,0.853,0,1.28-0.107
			c32-1.387,55.68-22.827,55.68-50.987v-2.347h110.293c6.4,0,11.413-5.653,10.56-12.16c-0.427-2.88-2.133-5.547-4.48-7.253
			l-1.493-1.173c-4.373-6.613-8.213-13.44-11.84-20.267c13.653-10.347,55.787-30.613,92.693-45.867
			C467.939,337.48,470.499,331.294,468.365,325.854z M298.659,104.414v-52.16c1.813,0,3.413-0.427,4.907-1.173
			c31.253-17.6,83.627-38.72,97.067-27.947c16.32,13.227,26.133,36.907,26.133,63.36c0,26.453-9.813,50.133-26.24,63.36
			c-18.88,15.147-32.533,8.427-32.96,8.213c-1.6-0.853-3.413-1.28-5.227-1.173c-7.253-7.253-15.573-13.44-24.747-18.347
			c-14.933-7.893-31.68-11.52-48.533-10.56C295.245,121.694,298.659,113.16,298.659,104.414z M193.699,31.774h72.427
			c6.293,0,11.307,5.12,11.307,11.307v61.227c0,7.04-5.653,12.693-12.693,12.693h-70.08c-7.253,0-13.12-5.867-13.12-13.227V44.04
			h-0.107C181.432,37.321,186.872,31.774,193.699,31.774z M172.259,129.907c-0.64,0.107-1.387,0.213-2.027,0.32l-3.627-6.4
			C168.205,126.067,170.125,128.094,172.259,129.907z M55.352,157.427C40.099,142.814,30.925,117.534,30.925,89.8
			s9.067-53.12,24.427-67.627c9.813-9.6,61.867,9.493,104.747,33.173v48.533c0,6.187,1.707,12.267,5.013,17.493
			C121.379,146.334,65.592,167.24,55.352,157.427z M245.432,428.681c0,16.96-15.36,29.333-36.693,29.76
			c-21.333-0.427-37.973-13.333-37.973-29.76v-2.24h74.667V428.681z M62.179,405.107c22.507-39.253,33.92-83.627,33.92-132.16v-8.96
			c0-57.173,33.707-114.987,98.133-114.987h32.32c64.213,0,93.547,59.627,93.547,114.987v8.96c0,46.613,12.16,90.987,36.16,132.053
			L62.179,405.107z M360.739,366.707c-12.693-29.44-19.307-61.227-19.307-93.333v-8.96c0-50.56-18.773-91.52-49.6-114.88
			c12.48-0.427,24.853,2.453,35.947,8.32c21.547,11.307,38.933,33.92,47.467,61.973l2.24,7.36
			c11.627,37.973,32.747,72.427,61.547,99.84C414.392,337.587,379.939,353.374,360.739,366.707z"/>
	</g>
</g>
</svg>