<?xml version="1.0" ?><!-- Uploaded to: SVG Repo, www.svgrepo.com, Generator: SVG Repo Mixer Tools -->
<svg width="800px" height="800px" viewBox="0 0 128 128" data-name="Layer 2" id="Layer_2" xmlns="http://www.w3.org/2000/svg"><defs><style>.cls-1{fill:#c4a926;}.cls-2{fill:none;stroke:#202128;stroke-linecap:round;stroke-linejoin:round;stroke-width:1.34px;}.cls-3{fill:#f1e175;}.cls-4{fill:#ddc952;}.cls-5{fill:#616834;}.cls-6{fill:#909650;}.cls-7{fill:#ea563a;}</style></defs><title/><path class="cls-1" d="M69.15,21a5.15,5.15,0,1,0-7.83,4.38V31.9h5.36V25.33A5.12,5.12,0,0,0,69.15,21Z"/><path class="cls-2" d="M30.84,91.81A104.79,104.79,0,0,1,44.25,89.9"/><path class="cls-3" d="M64,29a14.29,14.29,0,0,1,3.68.47C73.6,31,89.59,37,91,57.4c1.7,25,9.34,40.21,14.22,44.61H22.81C27.69,97.61,35.33,82.44,37,57.4,38.41,37,54.4,31,60.32,29.43A14.29,14.29,0,0,1,64,29Z"/><ellipse class="cls-4" cx="64" cy="102.01" rx="41.19" ry="3.62"/><path class="cls-4" d="M50.43,90c4.34-.22,8.91-.33,13.57-.33a208.49,208.49,0,0,1,29,1.77c2.06.3,3.91.64,5.47,1h.15a.67.67,0,0,0,.28-.06c-.2-.44-.4-.9-.59-1.36q-2.25-.5-5.12-.92A211.26,211.26,0,0,0,64,88.36c-4.68,0-9.27.11-13.64.34a.68.68,0,0,0-.64.7A.63.63,0,0,0,50.43,90Z"/><path class="cls-4" d="M53,83.84c3.58-.14,7.28-.22,11-.22,12.5,0,24.16.83,32,2.26h.13a.57.57,0,0,0,.22,0c-.15-.45-.31-.88-.46-1.35C88,83.09,76.39,82.29,64,82.29c-3.75,0-7.48.07-11.07.22a.67.67,0,1,0,0,1.33Z"/><path class="cls-4" d="M31.57,86.1a.57.57,0,0,0,.22,0h.13c2-.38,4.4-.72,7-1a.67.67,0,0,0,.59-.74.68.68,0,0,0-.74-.59c-2.48.28-4.74.61-6.73,1C31.89,85.22,31.73,85.65,31.57,86.1Z"/><path class="cls-4" d="M29.54,92h.12c2-.37,4.4-.71,7-1a.66.66,0,0,0,.59-.74.67.67,0,0,0-.74-.59c-2.46.28-4.69.6-6.66.95-.19.46-.39.9-.58,1.34A.6.6,0,0,0,29.54,92Z"/><path class="cls-5" d="M95.64,16.53l-12-3h0a19.75,19.75,0,0,1-13.93,6.93l-1,.05-3.5,10.26,10.11,3.89.7-.75A19.8,19.8,0,0,1,90.3,27.64h0Z"/><path class="cls-6" d="M96.25,16.25a.68.68,0,0,0-.89-.33L78.43,23.84a9.94,9.94,0,0,0,2-5.5.66.66,0,0,0-.69-.64.67.67,0,0,0-.65.69c.1,2.86-2.79,6.14-3.29,6.69L65,30.13a.67.67,0,0,0,.28,1.28.62.62,0,0,0,.29-.07l4.69-2.19c.69,0,4.2.12,6.49,2.17a.67.67,0,0,0,.94-.05.67.67,0,0,0-.05-.95,10.46,10.46,0,0,0-5-2.28l8-3.75a14,14,0,0,1,8.08,1.93.61.61,0,0,0,.36.11.7.7,0,0,0,.57-.3.68.68,0,0,0-.2-.93,15.66,15.66,0,0,0-6-2.11l12.53-5.85A.67.67,0,0,0,96.25,16.25Z"/><path class="cls-5" d="M31.85,16.53l11.95-3h0a19.75,19.75,0,0,0,13.92,6.93l1,.05,3.51,10.26L52.14,34.63l-.7-.75a19.8,19.8,0,0,0-14.25-6.24h0Z"/><path class="cls-6" d="M31.24,16.25a.68.68,0,0,1,.89-.33l16.93,7.92a9.94,9.94,0,0,1-2-5.5.67.67,0,1,1,1.33.05c-.09,2.86,2.8,6.14,3.3,6.69l10.8,5.05a.67.67,0,0,1-.28,1.28.59.59,0,0,1-.29-.07l-4.69-2.19c-.69,0-4.2.12-6.49,2.17a.7.7,0,0,1-.45.17.68.68,0,0,1-.49-.22.67.67,0,0,1,0-.95,10.46,10.46,0,0,1,5-2.28l-8-3.75a14,14,0,0,0-8.08,1.93.64.64,0,0,1-.37.11.67.67,0,0,1-.36-1.23,15.66,15.66,0,0,1,6-2.11L31.56,17.14A.67.67,0,0,1,31.24,16.25Z"/><circle class="cls-7" cx="60.87" cy="31.02" r="3.07"/><circle class="cls-7" cx="67.13" cy="31.11" r="3.07"/><circle class="cls-7" cx="63.96" cy="25.71" r="3.07"/><path class="cls-4" d="M39.87,59.65h-.08a.65.65,0,0,1-.58-.74c.29-2.38.63-4.51,1.07-6.68A31.39,31.39,0,0,1,41.4,48.1a.67.67,0,1,1,1.26.44,29.94,29.94,0,0,0-1.07,4c-.43,2.13-.77,4.22-1.06,6.57A.67.67,0,0,1,39.87,59.65Z"/><path class="cls-4" d="M43.43,45.75a.64.64,0,0,1-.31-.07.67.67,0,0,1-.29-.9c3.09-5.9,7.16-7.42,7.34-7.49a.68.68,0,0,1,.85.4.67.67,0,0,1-.4.86S46.84,40,44,45.4A.67.67,0,0,1,43.43,45.75Z"/><path class="cls-1" d="M57.42,109.35a5.15,5.15,0,0,0,6.4,5,5.1,5.1,0,0,0,3.74-3.67A5.16,5.16,0,0,0,65.25,105V100.8a2.41,2.41,0,0,0-2.41-2.41H62.3a2.41,2.41,0,0,0-2.41,2.41V105A5.13,5.13,0,0,0,57.42,109.35Z"/><path class="cls-3" d="M62.57,113.51h-.13c-3.33-.69-3.93-3.25-3.78-4.5a.67.67,0,1,1,1.33.15c0,.25-.16,2.44,2.71,3a.67.67,0,0,1,.53.79A.68.68,0,0,1,62.57,113.51Z"/></svg>