<svg width="32" height="32" viewBox="0 0 32 32" fill="none" xmlns="http://www.w3.org/2000/svg">
<path d="M26.6667 29.7141H5.33338C4.49528 29.7141 3.80957 29.0283 3.80957 28.1902V12.9521H28.1905V28.1902C28.1905 29.0283 27.5048 29.7141 26.6667 29.7141Z" fill="#D61935"/>
<path d="M29.7147 12.9522H2.28613V8.38074C2.28613 7.54265 2.97185 6.85693 3.80994 6.85693H28.1909C29.029 6.85693 29.7147 7.54265 29.7147 8.38074V12.9522Z" fill="#F81D3D"/>
<path d="M14.4766 12.9523H17.5242V29.7142H14.4766V12.9523ZM19.048 2.28564L14.4766 6.85707H17.5242L22.0956 2.28564H19.048Z" fill="#FF8F00"/>
<path d="M14.4757 12.9523H17.5233V6.85707L12.9519 2.28564H9.9043L14.4757 6.85707V12.9523Z" fill="#FFC107"/>
</svg>
